<svg id="Capa_1" enable-background="new 0 0 512.002 512.002" height="512" viewBox="0 0 512.002 512.002" width="512" xmlns="http://www.w3.org/2000/svg"><g><g><path d="m398.178 435.716c-14.892 15.459-32.208 28.505-51.338 38.489.743 21.001 17.76 37.797 38.656 37.797 21.369 0 38.692-17.562 38.692-39.226 0-17.16-10.872-31.736-26.01-37.06z" fill="#00c2fb"/></g><g><path d="m113.824 435.716c-15.138 5.324-26.011 19.9-26.011 37.06 0 21.664 17.323 39.226 38.692 39.226 20.896 0 37.913-16.796 38.657-37.797-19.129-9.984-36.446-23.03-51.338-38.489z" fill="#00c2fb"/></g><path d="m390.057 491.284c-4.359-8.246-1.486-18.458 6.488-23.296 7.706-4.675 15.064-9.876 22.046-15.532-4.637-7.74-11.84-13.725-20.414-16.74-14.892 15.459-32.208 28.505-51.338 38.489.743 21.001 17.76 37.797 38.656 37.797 7.051 0 13.655-1.921 19.348-5.262-6.233-3.656-11.377-9.008-14.786-15.456z" fill="#00abf2"/><path d="m126.488 472.776c0-7.438 2.045-14.388 5.592-20.312-6.421-5.201-12.52-10.794-18.256-16.748-15.138 5.324-26.011 19.9-26.011 37.06 0 21.664 17.323 39.226 38.692 39.226 7.048 0 13.65-1.917 19.339-5.254-11.567-6.782-19.356-19.451-19.356-33.972z" fill="#00abf2"/><g><path d="m240.731 60.555v42.793c5.04-.453 10.132-.683 15.27-.683s10.23.231 15.27.683v-42.793z" fill="#d9e7ec"/></g><g><path d="m465.783 85.999 11.716-13.122c4.064-4.552 3.818-11.404-.551-15.305l-6.961-6.215c-4.369-3.9-11.205-3.372-15.269 1.18l-11.716 13.122z" fill="#e8f9fc"/></g><path d="m465.966 63.673c3.217-3.604 7.763-5.264 12.117-4.891-.344-.425-.714-.834-1.134-1.21l-6.961-6.215c-4.369-3.9-11.205-3.372-15.269 1.18l-11.716 13.122 11.791 10.527z" fill="#d9e7ec"/><g><path d="m45.832 85.567-11.478-12.857c-3.982-4.46-3.669-11.238.7-15.138l6.961-6.215c4.369-3.9 11.138-3.447 15.12 1.013l11.479 12.857z" fill="#e8f9fc"/></g><path d="m48.732 65.109c-4.051-4.537-4.914-10.781-2.749-15.956-1.429.425-2.788 1.15-3.968 2.204l-6.961 6.215c-4.369 3.9-4.682 10.678-.7 15.138l11.479 12.856 11.777-10.514z" fill="#d9e7ec"/><g><path d="m397.375 162.376 26.968-29.719-22.781-20.34-26.959 29.708c8.103 6.2 15.719 13.002 22.772 20.351z" fill="#e8f9fc"/></g><path d="m414.176 123.58-12.614-11.262-26.959 29.708c8.103 6.199 15.719 13.001 22.772 20.351l10.597-11.678c-.987-.867-1.981-1.727-2.984-2.577-4.036-3.424-4.472-9.489-.915-13.408z" fill="#d9e7ec"/><g><path d="m137.399 142.026-26.959-29.708-22.781 20.34 26.968 29.719c7.053-7.35 14.669-14.152 22.772-20.351z" fill="#e8f9fc"/></g><path d="m118.117 141.618c-4.48-4.937-4.078-12.579.895-17.019l1.422-1.269-9.993-11.012-22.782 20.34 26.968 29.719c3.819-3.979 7.816-7.783 11.952-11.432z" fill="#d9e7ec"/><g><g><path d="m256.001 36.199c-4.204 0-7.611-3.408-7.611-7.611v-20.977c0-4.204 3.408-7.611 7.611-7.611 4.204 0 7.611 3.408 7.611 7.611v20.976c0 4.204-3.408 7.612-7.611 7.612z" fill="#d9e7ec"/></g></g><g><circle cx="256.001" cy="297.922" fill="#62ddfc" r="198.732"/></g><path d="m104.352 297.923c0-101.79 76.532-185.692 175.19-197.337-7.722-.912-15.575-1.394-23.541-1.394-109.757 0-198.732 88.975-198.732 198.732s88.975 198.732 198.732 198.732c7.967 0 15.82-.483 23.541-1.394-98.658-11.648-175.19-95.55-175.19-197.339z" fill="#00d2fc"/><g><circle cx="256.001" cy="297.923" fill="#e8f9fc" r="168.192"/></g><path d="m134.892 297.923c0-84.752 63.015-155.051 144.65-166.536-7.695-1.083-15.552-1.656-23.541-1.656-92.741 0-168.192 75.45-168.192 168.192 0 92.741 75.451 168.192 168.192 168.192 7.989 0 15.846-.573 23.541-1.655-81.635-11.486-144.65-81.786-144.65-166.537z" fill="#d9e7ec"/><path d="m256.001 122.119c-96.938 0-175.803 78.865-175.803 175.803s78.865 175.803 175.803 175.803c96.939 0 175.804-78.865 175.804-175.803s-78.866-175.803-175.804-175.803zm86.767 310.866-5.412-9.373c-2.102-3.641-6.758-4.888-10.397-2.786-3.641 2.102-4.888 6.757-2.786 10.397l5.423 9.393c-19.936 10.324-42.297 16.59-65.984 17.701v-10.867c0-4.204-3.408-7.611-7.611-7.611-4.204 0-7.611 3.408-7.611 7.611v10.867c-23.687-1.111-46.048-7.377-65.984-17.701l5.423-9.393c2.102-3.64.855-8.295-2.786-10.397-3.641-2.103-8.295-.855-10.397 2.786l-5.412 9.373c-19.334-12.464-35.832-28.961-48.296-48.295l9.374-5.412c3.641-2.102 4.888-6.757 2.786-10.397-2.102-3.641-6.757-4.888-10.397-2.786l-9.393 5.423c-10.324-19.936-16.59-42.297-17.701-65.984h10.867c4.204 0 7.611-3.408 7.611-7.611s-3.408-7.611-7.611-7.611h-10.868c1.111-23.687 7.377-46.048 17.701-65.984l9.393 5.423c1.199.692 2.507 1.021 3.799 1.021 2.63 0 5.189-1.366 6.599-3.807 2.102-3.641.855-8.296-2.786-10.397l-9.374-5.412c12.464-19.334 28.962-35.832 48.296-48.296l5.412 9.374c1.41 2.442 3.968 3.807 6.599 3.807 1.291 0 2.6-.329 3.799-1.021 3.641-2.102 4.888-6.757 2.786-10.397l-5.423-9.393c19.936-10.324 42.296-16.59 65.984-17.701v10.867c0 4.204 3.408 7.611 7.611 7.611 4.204 0 7.611-3.408 7.611-7.611v-10.867c23.688 1.111 46.048 7.377 65.984 17.701l-5.423 9.393c-2.102 3.641-.855 8.296 2.786 10.397 1.199.692 2.507 1.021 3.799 1.021 2.63 0 5.189-1.366 6.599-3.807l5.412-9.374c19.334 12.464 35.832 28.962 48.296 48.296l-9.374 5.412c-3.641 2.102-4.888 6.757-2.786 10.397 1.41 2.442 3.968 3.807 6.599 3.807 1.291 0 2.6-.329 3.799-1.021l9.393-5.423c10.324 19.936 16.59 42.296 17.701 65.984h-10.867c-4.204 0-7.611 3.408-7.611 7.611s3.408 7.611 7.611 7.611h10.867c-1.111 23.688-7.377 46.048-17.701 65.984l-9.393-5.423c-3.64-2.103-8.296-.854-10.397 2.786-2.102 3.641-.855 8.296 2.786 10.397l9.373 5.412c-12.466 19.334-28.964 35.832-48.298 48.295z" fill="#7b6c79"/><g><g><path d="m256.001 279.089c-4.204 0-7.611-3.408-7.611-7.611v-98.481c0-4.204 3.408-7.611 7.611-7.611 4.204 0 7.611 3.408 7.611 7.611v98.481c0 4.203-3.408 7.611-7.611 7.611z" fill="#938493"/></g></g><g><path d="m226.855 297.923c0-5.546 1.462-10.753 4.011-15.27h-65.592c-8.433 0-15.27 6.837-15.27 15.27s6.837 15.27 15.27 15.27h65.592c-2.549-4.517-4.011-9.725-4.011-15.27z" fill="#f27182"/></g><path d="m190.435 297.923c0-8.433 6.837-15.27 15.27-15.27h-40.431c-8.433 0-15.27 6.837-15.27 15.27 0 8.434 6.837 15.27 15.27 15.27h40.431c-8.433 0-15.27-6.837-15.27-15.27z" fill="#ed5469"/><g><path d="m290.868 26.403h-69.733c-6.719 0-12.216 5.497-12.216 12.216v12.725c0 6.719 5.497 12.216 12.216 12.216h69.733c6.719 0 12.216-5.497 12.216-12.216v-12.725c0-6.718-5.498-12.216-12.216-12.216z" fill="#e8f9fc"/></g><path d="m251.746 51.344v-12.724c0-6.719 5.497-12.216 12.216-12.216h-42.827c-6.719 0-12.216 5.497-12.216 12.216v12.725c0 6.719 5.497 12.216 12.216 12.216h42.827c-6.719 0-12.216-5.498-12.216-12.217z" fill="#d9e7ec"/><g><path d="m482.06 98.983-53.797-48.031c-17.26-15.41-43.99-13.896-59.4 3.363l-8.637 9.674c-4.171 4.672-3.761 11.907.91 16.078l99.571 88.899c4.672 4.171 11.907 3.761 16.078-.91l8.637-9.674c15.412-17.259 13.898-43.989-3.362-59.399z" fill="#62ddfc"/></g><path d="m408.22 80.068c-4.672-4.171-5.081-11.406-.911-16.078l8.637-9.674c2.369-2.654 5.007-4.932 7.836-6.836-17.138-11.567-40.786-8.993-54.919 6.836l-8.637 9.674c-4.171 4.672-3.761 11.907.91 16.078l99.571 88.899c4.672 4.171 11.907 3.762 16.078-.91l8.637-9.674c1.588-1.779 2.987-3.664 4.217-5.621z" fill="#00d2fc"/><g><path d="m29.942 98.983 53.797-48.031c17.26-15.41 43.99-13.896 59.4 3.363l8.637 9.674c4.171 4.672 3.761 11.907-.91 16.078l-99.571 88.899c-4.672 4.171-11.907 3.761-16.078-.91l-8.637-9.674c-15.412-17.259-13.898-43.989 3.362-59.399z" fill="#62ddfc"/></g><path d="m77.024 98.983 53.797-48.031c1.431-1.277 2.932-2.427 4.481-3.473-15.57-10.485-36.957-9.568-51.564 3.473l-53.796 48.031c-17.26 15.41-18.773 42.14-3.363 59.4l8.637 9.674c4.171 4.672 11.406 5.081 16.078.91l18.151-16.205c-10.704-17.034-7.901-39.957 7.579-53.779z" fill="#00d2fc"/><g><circle cx="256.001" cy="297.923" fill="#7b6c79" r="31.176"/></g><path d="m256.001 297.923c0-11.514 6.279-21.582 15.588-26.982-4.589-2.662-9.912-4.194-15.588-4.194-17.19 0-31.176 13.986-31.176 31.176s13.985 31.176 31.176 31.176c5.676 0 10.999-1.532 15.588-4.194-9.309-5.4-15.588-15.468-15.588-26.982z" fill="#665e68"/></g></svg>